# xmcd CD database file
#
# Track frame offsets:
#	150
#	12496
#	29842
#	45110
#	59201
#	75802
#	88740
#	112606
#	124393
#	137740
#	153326
#	166653
#
# Disc length: 2407 seconds
#
# Revision: 0
# Processed by: cddbd v1.5.2PL0 Copyright (c) Steve Scherf et al.
# Submitted via: CDex 1.70beta2
#
DISCID=8f09650c
DTITLE=Todd Rundgren - Todd Rundgrens Johnson
DYEAR=2010
DGENRE=Blues
TTITLE0=Dust my broom
TTITLE1=Stop breakin down
TTITLE2=Walking blues
TTITLE3=Kind heated woman blues
TTITLE4=Love in vain
TTITLE5=Last fair deal gone down
TTITLE6=Sweet home Chicago
TTITLE7=Theyre red hot
TTITLE8=Come on in my kitchen
TTITLE9=Hellhound on my trail
TTITLE10=Traveling riverside blues
TTITLE11=Crossroads blues
EXTD=YEAR: 2010
EXTT0=
EXTT1=
EXTT2=
EXTT3=
EXTT4=
EXTT5=
EXTT6=
EXTT7=
EXTT8=
EXTT9=
EXTT10=
EXTT11=
PLAYORDER=
